<svg viewBox="0 0 720 634" role="img" aria-label="인증된 계획의 6대 경로와 표적 belief">
<text x="0" y="24" class="p-t">Tank 케이스 · 8×8 격자 · 셀 2,221 m · 11슬라이스</text>
<text x="0" y="48" class="p-r">탐지확률 <tspan class="p-v">0.7299</tspan><tspan class="p-s" dx="16">gap</tspan> <tspan class="p-v">0.835 %</tspan><tspan class="p-s" dx="16">seed</tspan> <tspan class="p-v">20260201</tspan></text>
<text x="716" y="48" text-anchor="end" class="p-ok">최적성 인증됨 · 기준 1 %</text>
<rect x="174.8" y="430.5" width="58.8" height="58.8" fill="var(--accent)" opacity="0.022"/>
<rect x="233.5" y="430.5" width="58.8" height="58.8" fill="var(--accent)" opacity="0.020"/>
<rect x="174.8" y="371.8" width="58.8" height="58.8" fill="var(--accent)" opacity="0.004"/>
<rect x="233.5" y="371.8" width="58.8" height="58.8" fill="var(--accent)" opacity="0.160"/>
<rect x="292.2" y="371.8" width="58.8" height="58.8" fill="var(--accent)" opacity="0.294"/>
<rect x="174.8" y="313.0" width="58.8" height="58.8" fill="var(--accent)" opacity="0.004"/>
<rect x="233.5" y="313.0" width="58.8" height="58.8" fill="var(--accent)" opacity="0.069"/>
<rect x="292.2" y="313.0" width="58.8" height="58.8" fill="var(--accent)" opacity="0.702"/>
<rect x="351.0" y="313.0" width="58.8" height="58.8" fill="var(--accent)" opacity="0.720"/>
<rect x="409.8" y="313.0" width="58.8" height="58.8" fill="var(--accent)" opacity="0.046"/>
<rect x="292.2" y="254.2" width="58.8" height="58.8" fill="var(--accent)" opacity="0.271"/>
<rect x="351.0" y="254.2" width="58.8" height="58.8" fill="var(--accent)" opacity="0.555"/>
<rect x="409.8" y="254.2" width="58.8" height="58.8" fill="var(--accent)" opacity="0.347"/>
<rect x="468.5" y="254.2" width="58.8" height="58.8" fill="var(--accent)" opacity="0.052"/>
<rect x="292.2" y="195.5" width="58.8" height="58.8" fill="var(--accent)" opacity="0.088"/>
<rect x="351.0" y="195.5" width="58.8" height="58.8" fill="var(--accent)" opacity="0.039"/>
<rect x="409.8" y="195.5" width="58.8" height="58.8" fill="var(--accent)" opacity="0.020"/>
<rect x="468.5" y="195.5" width="58.8" height="58.8" fill="var(--accent)" opacity="0.029"/>
<rect x="527.2" y="195.5" width="58.8" height="58.8" fill="var(--accent)" opacity="0.006"/>
<rect x="292.2" y="136.8" width="58.8" height="58.8" fill="var(--accent)" opacity="0.014"/>
<line x1="116.0" y1="78" x2="116.0" y2="548" stroke="var(--rule)" stroke-width="0.5"/>
<line x1="116" y1="78.0" x2="586" y2="78.0" stroke="var(--rule)" stroke-width="0.5"/>
<line x1="174.8" y1="78" x2="174.8" y2="548" stroke="var(--rule)" stroke-width="0.5"/>
<line x1="116" y1="136.8" x2="586" y2="136.8" stroke="var(--rule)" stroke-width="0.5"/>
<line x1="233.5" y1="78" x2="233.5" y2="548" stroke="var(--rule)" stroke-width="0.5"/>
<line x1="116" y1="195.5" x2="586" y2="195.5" stroke="var(--rule)" stroke-width="0.5"/>
<line x1="292.2" y1="78" x2="292.2" y2="548" stroke="var(--rule)" stroke-width="0.5"/>
<line x1="116" y1="254.2" x2="586" y2="254.2" stroke="var(--rule)" stroke-width="0.5"/>
<line x1="351.0" y1="78" x2="351.0" y2="548" stroke="var(--rule)" stroke-width="0.5"/>
<line x1="116" y1="313.0" x2="586" y2="313.0" stroke="var(--rule)" stroke-width="0.5"/>
<line x1="409.8" y1="78" x2="409.8" y2="548" stroke="var(--rule)" stroke-width="0.5"/>
<line x1="116" y1="371.8" x2="586" y2="371.8" stroke="var(--rule)" stroke-width="0.5"/>
<line x1="468.5" y1="78" x2="468.5" y2="548" stroke="var(--rule)" stroke-width="0.5"/>
<line x1="116" y1="430.5" x2="586" y2="430.5" stroke="var(--rule)" stroke-width="0.5"/>
<line x1="527.2" y1="78" x2="527.2" y2="548" stroke="var(--rule)" stroke-width="0.5"/>
<line x1="116" y1="489.2" x2="586" y2="489.2" stroke="var(--rule)" stroke-width="0.5"/>
<line x1="586.0" y1="78" x2="586.0" y2="548" stroke="var(--rule)" stroke-width="0.5"/>
<line x1="116" y1="548.0" x2="586" y2="548.0" stroke="var(--rule)" stroke-width="0.5"/>
<rect x="116" y="78" width="470" height="470" fill="none" stroke="var(--rule-strong)" stroke-width="1"/>
<circle cx="351.0" cy="313.0" r="235.0" fill="none" stroke="var(--rule-strong)" stroke-width="1" stroke-dasharray="5 5"/>
<circle cx="351.0" cy="313.0" r="3" fill="var(--ink)"/>
<text x="360" y="307" class="p-l">TP</text>
<polyline points="439.1,283.6 439.1,283.6 439.1,283.6 497.9,283.6 439.1,283.6 497.9,283.6 439.1,283.6 497.9,283.6 439.1,283.6 497.9,283.6 497.9,224.9 497.9,283.6" fill="none" stroke="#E4572E" stroke-width="2.4" stroke-linejoin="round" stroke-linecap="round" opacity="0.92"/>
<circle cx="439.1" cy="283.6" r="5.2" fill="#E4572E" stroke="var(--surface)" stroke-width="1.6"/>
<rect x="494.1" y="279.8" width="7.6" height="7.6" fill="var(--surface)" stroke="#E4572E" stroke-width="2"/>
<polyline points="380.4,224.9 380.4,283.6 380.4,342.4 380.4,283.6 380.4,342.4 380.4,283.6 380.4,342.4 321.6,342.4 380.4,342.4 321.6,342.4 380.4,342.4 321.6,342.4" fill="none" stroke="#2E86AB" stroke-width="2.4" stroke-linejoin="round" stroke-linecap="round" opacity="0.92"/>
<circle cx="380.4" cy="224.9" r="5.2" fill="#2E86AB" stroke="var(--surface)" stroke-width="1.6"/>
<rect x="317.8" y="338.6" width="7.6" height="7.6" fill="var(--surface)" stroke="#2E86AB" stroke-width="2"/>
<polyline points="321.6,224.9 321.6,283.6 380.4,283.6 439.1,283.6 380.4,283.6 439.1,283.6 380.4,283.6 439.1,283.6 380.4,283.6 439.1,283.6 439.1,283.6 439.1,283.6" fill="none" stroke="#17886F" stroke-width="2.4" stroke-linejoin="round" stroke-linecap="round" opacity="0.92"/>
<circle cx="321.6" cy="224.9" r="5.2" fill="#17886F" stroke="var(--surface)" stroke-width="1.6"/>
<rect x="435.3" y="279.8" width="7.6" height="7.6" fill="var(--surface)" stroke="#17886F" stroke-width="2"/>
<polyline points="262.9,283.6 262.9,342.4 262.9,401.1 321.6,401.1 262.9,401.1 262.9,401.1 262.9,401.1 262.9,342.4 262.9,401.1 262.9,459.9 204.1,459.9 204.1,459.9" fill="none" stroke="#B5179E" stroke-width="2.4" stroke-linejoin="round" stroke-linecap="round" opacity="0.92"/>
<circle cx="262.9" cy="283.6" r="5.2" fill="#B5179E" stroke="var(--surface)" stroke-width="1.6"/>
<rect x="200.3" y="456.1" width="7.6" height="7.6" fill="var(--surface)" stroke="#B5179E" stroke-width="2"/>
<polyline points="321.6,401.1 321.6,342.4 321.6,401.1 321.6,342.4 321.6,401.1 321.6,342.4 321.6,401.1 262.9,401.1 321.6,401.1 262.9,401.1 262.9,459.9 262.9,401.1" fill="none" stroke="#C58B00" stroke-width="2.4" stroke-linejoin="round" stroke-linecap="round" opacity="0.92"/>
<circle cx="321.6" cy="401.1" r="5.2" fill="#C58B00" stroke="var(--surface)" stroke-width="1.6"/>
<rect x="259.1" y="397.3" width="7.6" height="7.6" fill="var(--surface)" stroke="#C58B00" stroke-width="2"/>
<polyline points="380.4,401.1 380.4,342.4 321.6,342.4 380.4,342.4 321.6,342.4 380.4,342.4 321.6,342.4 321.6,401.1 321.6,342.4 321.6,401.1 262.9,401.1 321.6,401.1" fill="none" stroke="#5468D4" stroke-width="2.4" stroke-linejoin="round" stroke-linecap="round" opacity="0.92"/>
<circle cx="380.4" cy="401.1" r="5.2" fill="#5468D4" stroke="var(--surface)" stroke-width="1.6"/>
<rect x="317.8" y="397.3" width="7.6" height="7.6" fill="var(--surface)" stroke="#5468D4" stroke-width="2"/>
<circle cx="8" cy="574" r="5" fill="var(--muted)"/>
<text x="20" y="578" class="p-l">출발</text>
<rect x="72" y="570" width="8" height="8" fill="var(--surface)" stroke="var(--muted)" stroke-width="2"/>
<text x="88" y="578" class="p-l">종료</text>
<rect x="140" y="569" width="46" height="11" fill="var(--accent)" opacity="0.5"/>
<text x="194" y="578" class="p-l">표적 belief — 탐색 600 s 동안 셀에 머무는 질량의 합</text>
<text x="0" y="600" class="p-n">파선 원 = AOI 반경 8,884 m · 격자는 그 원에 외접 · 선 6개는 UAV 6대의 셀 경로</text>
</svg>